<svg height="24" viewBox="0 0 25 24" width="25" xmlns="http://www.w3.org/2000/svg"><g fill="none" stroke-linecap="round" stroke-linejoin="round" stroke-width=".5" transform="translate(1 1)"><path d="m22.5588 0-9.2711294 6.85997647 1.724047-4.04280706z" fill="#e17726" stroke="#e17726"/><g fill="#e27625" stroke="#e27625"><path d="m1.17376941 0 9.18858349 6.924-1.64145878-4.10683765z"/><path d="m19.2206118 15.9059294-2.4667765 3.7684235 5.2820471 1.4543295 1.5131294-5.1403765z"/><path d="m.19250118 15.9883059 1.50391058 5.1403765 5.27290589-1.4543295-2.45764236-3.7684235z"/><path d="m6.68498824 9.53992941-1.46721177 2.21350589 5.22702353.2378118-.1742118-5.62517651z"/><path d="m17.0472706 9.54-3.6405177-3.23789647-.1192235 5.68921407 5.2269882-.2378117z"/><path d="m6.96938824 19.6743529 3.16369416-1.5274588-2.72350593-2.1220235z"/><path d="m13.5994588 18.1468941 3.1545177 1.5274588-.4310118-3.6494823z"/></g><path d="m16.7539765 19.6744941-3.1545177-1.5274588.2567294 2.0488235-.0275294.8689412z" fill="#d5bfb2" stroke="#d5bfb2"/><path d="m6.96938824 19.6744941 2.93449411 1.3903059-.01835294-.8689412.24755299-2.0488235z" fill="#d5bfb2" stroke="#d5bfb2"/><path d="m9.9588 14.6712-2.62270588-.7682824 1.85237647-.8506588z" fill="#233447" stroke="#233447"/><path d="m13.7736706 14.6712.7703294-1.6189412 1.8615529.8506588z" fill="#233447" stroke="#233447"/><path d="m6.96931765 19.6743529.45854117-3.7684235-2.91614117.0823765z" fill="#cc6228" stroke="#cc6228"/><path d="m16.3045412 15.9059294.4493647 3.7684235 2.4667765-3.686047z" fill="#cc6228" stroke="#cc6228"/><path d="m18.5145176 11.7533647-5.2269882.2378118.486 2.6800235.7703294-1.6190118 1.861553.8506589z" fill="#cc6228" stroke="#cc6228"/><path d="m7.33609412 13.9028471 1.85237647-.8506589.77032941 1.6190118.486-2.6800235-5.22702353-.2378118z" fill="#cc6228" stroke="#cc6228"/><path d="m5.21794588 11.7533647 2.19170118 4.2715059-.07341177-2.1220235z" fill="#e27525" stroke="#e27525"/><path d="m16.4055529 13.9028471-.0825176 2.1220235 2.1916941-4.2715059z" fill="#e27525" stroke="#e27525"/><path d="m10.4450824 11.9911765-.48607064 2.6800235.61440004 3.1646824.1375764-4.1708471z" fill="#e27525" stroke="#e27525"/><path d="m13.2876706 11.9911765-.2568 1.6647529.1284 4.179953.6144-3.1646824z" fill="#e27525" stroke="#e27525"/><path d="m13.7736706 14.6712706-.6144 3.1646823.4401882.3110118 2.7235765-2.1220235.0825176-2.1220236z" fill="#f5841f" stroke="#f5841f"/><path d="m7.33609412 13.9029176.07341176 2.1220236 2.72350592 2.1220235.4401882-.3110118-.6144-3.1646823z" fill="#f5841f" stroke="#f5841f"/><path d="m13.8287294 21.0647294.0274588-.8689412-.2383764-.201247h-3.5030118l-.22927059.201247.01835294.8689412-2.93449411-1.3903059 1.02705882.8414824 2.08164704 1.436047h3.5671765l2.0908235-1.436047 1.0178824-.8414824z" fill="#c0ac9d" stroke="#c0ac9d"/><path d="m13.5993882 18.1468941-.4401882-.3109412h-2.586l-.4401176.3109412-.24762358 2.0488941.22927058-.201247h3.5030118l.238447.201247z" fill="#161616" stroke="#161616"/><path d="m22.9530353 7.30814118.7795059-3.78668471-1.1738118-3.52145647-8.9592706 6.63134118 3.447953 2.90858823 4.8693882 1.41776469 1.0729412-1.25308234-.4676471-.33847058.7427294-.6768-.5685176-.43905883.7428-.56710588z" fill="#763e1a" stroke="#763e1a"/><path d="m0 3.52145647.78864 3.78668471-.50436.37503529.75195529.56710588-.56855294.43905883.74278589.6768-.46768236.33847058 1.07292 1.25308234 4.86942353-1.41776469 3.44795299-2.90858823-8.95929181-6.63134118z" fill="#763e1a" stroke="#763e1a"/><path d="m21.9168706 10.9576235-4.8693882-1.41769409 1.467247 2.21350589-2.1916941 4.2714353 2.8977882-.0365647h4.3283294z" fill="#f5841f" stroke="#f5841f"/><path d="m6.68498824 9.53992941-4.86936 1.41769409-1.62312706 5.0306824h4.31917411l2.89776.0365647-2.19165176-4.2714353z" fill="#f5841f" stroke="#f5841f"/><path d="m13.2876 11.9912471.3117882-5.35997651 1.4121883-3.8141153h-6.29075297l1.41218827 3.8141153.3117882 5.35997651.1192235 1.6829647.0091765 4.1617411h2.586l.0091765-4.1617411z" fill="#f5841f" stroke="#f5841f"/></g></svg>